<?xml version="1.0" encoding="UTF-8"?><svg id="Calque_2" xmlns="http://www.w3.org/2000/svg" viewBox="0 0 411.77 214.88"><defs><style>.cls-1{fill:#e84d0d;}.cls-2{fill:#005067;}</style></defs><g id="_3iL_Ingénieurs"><g><g><rect class="cls-2" y="170.55" width="3.81" height="44.09" rx=".5" ry=".5"/><path class="cls-2" d="M56.85,170.55h-2.75c-.28,0-.5,.22-.5,.5v37.83l-30.4-38.15c-.09-.12-.24-.19-.39-.19h-3.28c-.28,0-.5,.22-.5,.5v43.09c0,.28,.22,.5,.5,.5h2.81c.28,0,.5-.22,.5-.5v-37.77l30.33,38.08c.09,.12,.24,.19,.39,.19h3.28c.28,0,.5-.22,.5-.5v-43.09c0-.28-.22-.5-.5-.5Z"/><path class="cls-2" d="M109.96,193.02h-19.34c-.28,0-.5,.22-.5,.5v2.47c0,.28,.22,.5,.5,.5h16.29v10.67c-1.82,1.33-3.89,2.37-6.15,3.1-2.35,.76-4.8,1.15-7.28,1.15-3.79,0-7.34-.86-10.55-2.56-3.21-1.7-5.79-4.02-7.65-6.89-1.86-2.86-2.8-6.05-2.8-9.47s.95-6.53,2.83-9.37c1.89-2.85,4.46-5.16,7.66-6.86,3.2-1.7,6.73-2.56,10.52-2.56,2.74,0,5.39,.45,7.87,1.33,2.48,.88,4.7,2.14,6.61,3.73,.21,.17,.52,.15,.7-.05l1.67-1.91c.09-.1,.13-.24,.12-.37-.01-.14-.08-.26-.18-.35-2.27-1.83-4.88-3.28-7.75-4.3-2.88-1.02-5.92-1.54-9.04-1.54-4.44,0-8.61,1-12.39,2.98-3.79,1.98-6.84,4.71-9.06,8.09-2.23,3.4-3.37,7.16-3.37,11.19s1.12,7.8,3.33,11.21c2.2,3.41,5.23,6.15,9,8.15,3.76,2,7.92,3.02,12.36,3.02,3.12,0,6.2-.52,9.14-1.54,2.94-1.02,5.56-2.45,7.79-4.24,.12-.1,.19-.24,.19-.39v-15.19c0-.28-.22-.5-.5-.5Z"/><path class="cls-2" d="M155.07,211.11h-27.77v-17.25h23.89c.28,0,.5-.22,.5-.5v-2.59c0-.28-.22-.5-.5-.5h-23.89v-16.2h26.9c.28,0,.5-.22,.5-.5v-2.53c0-.28-.22-.5-.5-.5h-30.22c-.28,0-.5,.22-.5,.5v43.09c0,.28,.22,.5,.5,.5h31.09c.28,0,.5-.22,.5-.5v-2.53c0-.28-.22-.5-.5-.5Z"/><path class="cls-2" d="M204.78,170.55h-2.75c-.28,0-.5,.22-.5,.5v37.83l-30.4-38.15c-.09-.12-.24-.19-.39-.19h-3.28c-.28,0-.5,.22-.5,.5v43.09c0,.28,.22,.5,.5,.5h2.81c.28,0,.5-.22,.5-.5v-37.77l30.33,38.08c.09,.12,.24,.19,.39,.19h3.28c.28,0,.5-.22,.5-.5v-43.09c0-.28-.22-.5-.5-.5Z"/><rect class="cls-2" x="220.5" y="170.55" width="3.81" height="44.09" rx=".5" ry=".5"/><path class="cls-2" d="M271.11,211.11h-27.77v-17.25h23.89c.28,0,.5-.22,.5-.5v-2.59c0-.28-.22-.5-.5-.5h-23.89v-16.2h26.9c.28,0,.5-.22,.5-.5v-2.53c0-.28-.22-.5-.5-.5h-30.22c-.28,0-.5,.22-.5,.5v43.09c0,.28,.22,.5,.5,.5h31.09c.28,0,.5-.22,.5-.5v-2.53c0-.28-.22-.5-.5-.5Z"/><path class="cls-2" d="M320.22,170.55h-2.81c-.28,0-.5,.22-.5,.5v25.64c0,4.64-1.38,8.28-4.1,10.82-2.73,2.55-6.59,3.84-11.48,3.84s-8.82-1.29-11.55-3.84c-2.72-2.54-4.1-6.18-4.1-10.82v-25.64c0-.28-.22-.5-.5-.5h-2.81c-.28,0-.5,.22-.5,.5v25.64c0,5.71,1.73,10.22,5.15,13.4,3.41,3.18,8.22,4.79,14.31,4.79s10.89-1.61,14.28-4.79c3.39-3.19,5.12-7.7,5.12-13.4v-25.64c0-.28-.22-.5-.5-.5Z"/><path class="cls-2" d="M359.35,199.4c3.48-.92,6.2-2.54,8.09-4.82,2.03-2.44,3.06-5.59,3.06-9.35,0-4.66-1.65-8.32-4.92-10.87-3.22-2.52-7.85-3.8-13.74-3.8h-16.55c-.28,0-.5,.22-.5,.5v43.09c0,.28,.22,.5,.5,.5h2.81c.28,0,.5-.22,.5-.5v-13.86h13.23c1.41,0,2.66-.07,3.73-.21l10.88,14.38c.09,.12,.24,.2,.4,.2h3.35c.19,0,.37-.11,.45-.28,.08-.17,.06-.38-.05-.53l-11.25-14.43Zm7.41-14.11c0,3.68-1.28,6.53-3.79,8.48-2.56,1.98-6.27,2.98-11.05,2.98h-13.3v-22.67h13.3c4.78,0,8.5,.98,11.05,2.92,2.55,1.93,3.79,4.64,3.79,8.29Z"/><path class="cls-2" d="M409.65,196.62c-1.38-1.66-3.12-2.93-5.15-3.78-1.98-.83-4.59-1.68-7.76-2.55-2.82-.81-5.1-1.56-6.75-2.23-1.6-.65-2.96-1.57-4.04-2.74-1.05-1.13-1.58-2.64-1.58-4.47,0-2.09,1.02-3.73,3.11-5,2.14-1.3,5.05-1.96,8.65-1.96,2.05,0,4.17,.26,6.31,.79,2.13,.52,4.04,1.29,5.69,2.28,.12,.07,.26,.09,.39,.05,.13-.04,.24-.12,.31-.24l1.27-2.34c.13-.24,.05-.53-.18-.67-1.82-1.09-3.97-1.96-6.39-2.61-2.42-.64-4.87-.97-7.26-.97-3.08,0-5.85,.44-8.24,1.29-2.42,.87-4.32,2.14-5.65,3.76-1.34,1.65-2.02,3.58-2.02,5.74,0,2.62,.7,4.78,2.09,6.42,1.36,1.61,3.05,2.85,5.01,3.68,1.91,.81,4.51,1.68,7.73,2.58,2.83,.77,5.12,1.51,6.81,2.2,1.64,.67,3.04,1.61,4.14,2.8,1.07,1.15,1.61,2.69,1.61,4.56,0,2.43-1.09,4.32-3.32,5.78-2.27,1.48-5.43,2.23-9.38,2.23-2.7,0-5.43-.52-8.13-1.54-2.69-1.02-4.98-2.44-6.79-4.23-.11-.11-.25-.16-.41-.14-.15,.02-.28,.1-.37,.23l-1.47,2.28c-.13,.2-.1,.47,.08,.64,2.09,1.93,4.69,3.49,7.73,4.66,3.04,1.17,6.16,1.76,9.29,1.76,3.31,0,6.25-.48,8.75-1.42,2.53-.95,4.52-2.33,5.91-4.1,1.4-1.79,2.12-3.87,2.12-6.2,0-2.66-.72-4.86-2.13-6.55Z"/></g><g><g><path class="cls-1" d="M3.28,115.27c0-6.76-.08-12.85,.02-18.93,.17-10.75,.44-21.5,.66-32.25,.39-19.13,.76-38.25,1.15-57.38,.07-3.49,1.53-4.3,4.87-2.6,20.61,10.47,41.21,20.97,61.81,31.47,11.7,5.96,23.4,11.94,35.14,17.92-3.59,4.47-6.91,5.3-11.57,2.9C69.16,42.9,42.98,29.38,16.79,15.88c-1.27-.65-2.58-1.22-4.6-2.17,0,5.19,.05,9.67,0,14.16-.21,17.09-.44,34.19-.68,51.28-.14,9.62-.22,19.25-.55,28.86-.05,1.39-1.14,3.03-2.23,4.02-1.37,1.25-3.24,1.97-5.44,3.22Z"/><path class="cls-1" d="M48.18,119.95c-1.6-5.92-.63-8.57,4.07-11.35,25.56-15.13,51.11-30.24,76.67-45.37,.86-.51,1.68-1.1,3.04-1.99-1.63-1.11-2.95-2.06-4.32-2.94-23.75-15.26-47.38-30.69-71.34-45.62-5.27-3.28-6.91-6.84-5.14-12.67,.7,.35,1.5,.67,2.21,1.13,29.11,18.87,58.21,37.74,87.31,56.63,4.76,3.09,4.72,4.31-.22,7.26-29.96,17.91-59.93,35.82-89.9,53.73-.75,.45-1.56,.79-2.37,1.2Z"/><path class="cls-1" d="M125.88,94.86c-1.08,.69-2.07,1.38-3.11,1.99-29.83,17.26-59.66,34.51-89.5,51.76-4.42,2.55-5.45,2.12-5.86-3.01-1.14-14.32-2.15-28.66-3.19-42.99-1.3-17.83-2.6-35.66-3.87-53.49-.26-3.7-.44-7.4-.67-11.16,6.85,1.57,8.02,3.16,8.44,9.75,1.19,18.63,2.55,37.25,3.81,55.88,.79,11.62,1.52,23.24,2.32,35.5,1.46-.73,2.54-1.2,3.54-1.79,25.16-14.7,50.31-29.4,75.46-44.12,5.51-3.22,7.15-3.04,12.63,1.69Z"/></g><g><path class="cls-2" d="M237.37,79.89c5.45,5,8.17,11.5,8.17,19.5,0,6.6-1.72,12.48-5.17,17.63-3.45,5.15-8.35,9.15-14.7,12-6.35,2.85-13.78,4.27-22.27,4.27-7.3,0-34.23-3.09-39.23-6.8l9.15-17.55c4.3,3.6,25.58,5.6,30.78,5.6,6.6,0,11.7-1.32,15.3-3.97,3.6-2.65,5.4-6.32,5.4-11.03s-2.12-7.86-5.4-10.72c-7.04-6.16-19.83-5.12-26.53-5.12l-3.61-9.82,21.49-27.59h-42.15l-.15-19.2h75.22v9.74l-26.4,33.46c9.2,1.2,14.65,4.61,20.11,9.6Z"/><path class="cls-2" d="M295.42,20.43c2.35,2.4,3.53,5.5,3.53,9.3s-1.18,6.9-3.53,9.3c-2.35,2.4-5.38,3.6-9.07,3.6s-6.58-1.22-8.92-3.68c-2.35-2.45-3.53-5.52-3.53-9.22s1.17-6.9,3.53-9.3c2.35-2.4,5.32-3.6,8.92-3.6s6.72,1.2,9.07,3.6Zm-19.4,30.57h20.81v81.24h-20.81V51Z"/><path class="cls-2" d="M332.54,26.26h21.66V113.98h54.33v18.27h-75.99V26.26Z"/></g></g></g></g></svg>